<svg preserveAspectRatio="none" overflow="visible" style="display: block;" width="16" height="16" viewBox="0 0 16 16" fill="none" xmlns="http://www.w3.org/2000/svg">
<g id="mdi:bedroom-outline">
<path id="Vector" d="M4.66634 2C4.24967 2 3.83301 2.18 3.50801 2.51429C3.18301 2.84857 2.99967 3.24286 2.99967 3.71429V6.28571C2.55801 6.28571 2.16634 6.44857 1.82467 6.79143C1.48301 7.13429 1.33301 7.54571 1.33301 8V12.2857H2.44967L2.99967 14H3.83301L4.40801 12.2857H11.633L12.1663 14H12.9997L13.5497 12.2857H14.6663V8C14.6663 7.54571 14.508 7.14286 14.1747 6.79143C13.8413 6.44 13.4413 6.28571 12.9997 6.28571V3.71429C12.9997 3.24286 12.833 2.85714 12.4913 2.51429C12.1497 2.17143 11.7497 2 11.333 2M4.66634 3.71429H7.16634V6.28571H4.66634M8.83301 3.71429H11.333V6.28571H8.83301M2.99967 8H12.9997V10.5714H2.99967V8Z" fill="black" fill-opacity="0.6"/>
</g>
</svg>
